<?xml version="1.0" standalone="no"?>
<!DOCTYPE svg PUBLIC "-//W3C//DTD SVG 20010904//EN"
 "http://www.w3.org/TR/2001/REC-SVG-20010904/DTD/svg10.dtd">
<svg version="1.0" xmlns="http://www.w3.org/2000/svg"
 width="315.000000pt" height="315.000000pt" viewBox="0 0 315.000000 315.000000"
 preserveAspectRatio="xMidYMid meet">
<metadata>
Created by potrace 1.14, written by Peter Selinger 2001-2017
</metadata>
<g transform="translate(0.000000,315.000000) scale(0.100000,-0.100000)"
fill="#000000" stroke="none">
<path d="M1385 3121 c-480 -112 -821 -596 -819 -1161 2 -348 110 -639 329
-885 306 -344 537 -723 547 -897 3 -36 0 -43 -14 -40 -16 3 -18 -6 -18 -68 l0
-70 165 0 165 0 0 66 c0 56 -3 67 -19 71 -24 6 -19 48 16 152 67 196 288 527
530 795 102 113 189 261 242 414 18 50 34 101 36 114 3 12 8 37 11 53 27 121
35 295 21 436 -43 404 -282 781 -597 939 -63 32 -154 67 -195 76 -11 2 -31 7
-45 10 -14 3 -81 8 -150 10 -97 3 -143 -1 -205 -15z m361 -102 c11 -9 11 -66
-1 -77 -3 -3 -37 -7 -76 -7 -55 -1 -69 2 -70 15 0 8 -2 25 -3 36 -1 12 1 30 5
41 7 19 12 19 71 11 34 -6 68 -14 74 -19z m-192 -21 c-2 -24 -3 -48 -3 -53 -1
-6 -32 -10 -75 -10 -72 0 -75 1 -78 25 -2 14 -1 36 3 50 4 14 7 22 8 18 1 -3
13 -3 29 1 15 4 47 9 72 10 l46 2 -2 -43z m-196 -26 l1 -37 -79 0 c-63 0 -77
2 -67 12 11 11 123 62 138 63 4 0 7 -17 7 -38z m488 21 c63 -21 109 -49 92
-55 -7 -2 -42 -4 -78 -3 l-65 1 -3 37 c-2 20 -1 37 1 37 2 0 26 -8 53 -17z
m-488 -178 l0 -75 -78 0 -78 0 0 75 0 74 72 3 c39 2 74 2 78 1 3 -2 6 -37 6
-78z m390 1 l3 -76 -76 0 c-64 0 -75 2 -76 18 -1 20 -1 101 0 119 1 13 34 19
101 17 l45 -1 3 -77z m202 -2 l0 -74 -79 0 -80 0 0 74 0 75 52 3 c29 2 64 1
80 -1 27 -3 27 -4 27 -77z m137 37 c48 -39 59 -53 58 -77 l-2 -29 -76 -3 -77
-3 0 75 c0 63 3 75 18 79 9 3 18 5 19 6 1 0 28 -21 60 -48z m-925 12 c2 -16 1
-49 0 -75 l-4 -48 -74 0 c-52 0 -74 4 -75 13 -3 26 3 51 14 61 89 83 133 98
139 49z m392 -40 c-2 -38 -3 -71 -3 -75 -1 -5 -35 -8 -76 -8 -65 0 -75 2 -76
18 0 9 -1 43 -2 75 l-2 57 80 0 81 0 -2 -67z m-589 -204 l0 -74 -72 -3 c-40
-2 -73 1 -73 5 0 14 69 117 91 135 10 9 27 15 36 14 15 -2 18 -14 18 -77z
m195 46 c3 -16 3 -51 2 -77 l-4 -48 -74 0 c-59 0 -74 3 -75 15 -1 8 -1 40 -1
70 0 30 0 59 1 63 1 4 34 8 74 8 l72 -1 5 -30z m198 -48 l-1 -78 -76 3 -76 3
-2 75 -3 75 80 0 79 0 -1 -78z m193 63 c1 -18 1 -110 0 -127 -1 -9 -23 -13
-75 -13 l-74 0 -4 53 c-6 103 -7 102 77 102 61 1 75 -2 76 -15z m199 -20 c3
-19 3 -54 1 -77 l-3 -43 -74 0 c-52 0 -74 4 -75 13 -2 27 -4 132 -3 137 1 3
35 5 76 5 l73 0 5 -35z m198 -43 l3 -77 -81 0 -80 0 0 74 c0 48 4 76 12 78 6
2 41 4 77 3 l66 -1 3 -77z m187 71 c6 -3 10 -37 9 -75 l0 -68 -77 -3 -77 -3 0
74 c0 40 2 76 5 78 6 7 129 4 140 -3z m114 -5 c32 -45 81 -125 81 -133 0 -12
-139 -14 -141 -2 -4 22 -5 129 -1 140 4 13 51 9 61 -5z m-1284 -256 c1 -38 -4
-71 -10 -75 -5 -4 -40 -8 -77 -9 l-68 -2 0 80 0 80 77 -3 78 -3 0 -68z m193
-9 l3 -76 -75 1 c-44 0 -77 5 -79 11 -3 9 -1 135 2 144 1 2 34 2 74 0 l72 -3
3 -77z m199 1 l1 -75 -76 0 -77 1 -3 55 c-5 97 -3 99 81 97 l72 -2 2 -76z
m194 61 c1 -11 1 -42 1 -70 0 -27 0 -54 -1 -58 -1 -5 -35 -8 -75 -9 l-75 0 -3
31 c-2 17 -1 52 0 78 l4 46 74 1 c67 1 74 -1 75 -19z m201 -7 c2 -15 2 -51 0
-79 l-4 -50 -74 -1 c-41 0 -74 3 -75 6 -1 9 -1 124 0 137 1 7 30 12 75 13 l75
2 3 -28z m198 -51 l0 -78 -80 0 -80 -1 0 72 c0 39 3 74 6 77 3 4 39 6 80 7
l74 1 0 -78z m192 56 c2 -13 4 -48 3 -78 l-1 -55 -77 -1 -77 -2 0 78 0 78 74
1 c69 1 74 0 78 -21z m198 -59 l0 -79 -75 0 c-64 0 -75 2 -76 18 -4 53 -5 128
-2 134 2 4 37 7 78 7 l75 0 0 -80z m74 -56 c6 -19 3 -23 -13 -23 -19 0 -21 6
-20 53 1 51 1 52 14 22 7 -16 16 -40 19 -52z m-1644 22 c0 -33 -4 -45 -15 -45
-8 0 -15 6 -15 14 0 16 20 76 26 76 2 0 4 -20 4 -45z m0 -160 c0 -41 -3 -75
-7 -76 -5 0 -16 -2 -27 -4 -38 -7 -49 5 -42 49 12 79 26 106 52 106 23 0 24
-2 24 -75z m195 -5 l-1 -75 -74 0 -75 0 -3 78 -3 78 78 -3 78 -3 0 -75z m195
2 l0 -77 -75 0 c-41 -1 -76 2 -76 5 -4 17 -5 136 -2 143 2 4 38 7 79 7 l74 0
0 -78z m197 1 l-2 -77 -60 -1 c-97 -2 -95 -4 -94 81 l1 74 79 0 78 0 -2 -77z
m197 4 c1 -38 -3 -72 -9 -75 -5 -4 -39 -7 -75 -7 l-65 0 -5 40 c-3 22 -3 57
-1 78 l3 38 76 -3 76 -3 0 -68z m198 2 c2 -40 -1 -74 -7 -77 -17 -10 -136 -9
-142 2 -4 5 -7 40 -7 78 l-1 68 77 0 76 0 4 -71z m198 -7 l0 -77 -67 1 c-38 1
-73 2 -79 3 -7 1 -11 30 -12 76 l-1 75 79 0 80 0 0 -78z m196 8 c0 -36 -1 -70
-3 -75 -3 -9 -104 -13 -145 -6 -5 0 -8 35 -8 76 l0 76 77 -3 78 -3 1 -65z
m194 -8 l0 -78 -68 1 c-37 0 -72 4 -78 7 -8 6 -11 90 -5 141 1 4 35 7 76 7
l75 0 0 -78z m111 6 c7 -40 12 -75 11 -78 -1 -2 -20 -5 -42 -5 l-40 0 0 77 0
78 29 0 c28 0 30 -2 42 -72z m-1683 -192 c2 -38 1 -74 -1 -80 -3 -7 -23 -10
-52 -8 l-47 4 6 72 c3 39 6 73 6 76 0 3 19 5 43 5 l42 -1 3 -68z m192 65 c3
-1 5 -34 5 -74 0 -83 -3 -85 -101 -79 l-54 4 0 76 0 77 72 -2 c40 -1 75 -2 78
-2z m190 0 c6 -1 10 -33 10 -76 l0 -75 -78 0 -77 0 -1 73 c0 39 3 74 7 77 6 4
101 5 139 1z m201 0 c4 -1 7 -35 6 -76 l0 -75 -79 0 -78 0 0 74 c0 41 4 76 10
78 8 2 118 2 141 -1z m197 0 c5 -1 8 -103 3 -143 -1 -5 -35 -8 -76 -8 l-75 0
-1 38 c-1 46 2 105 6 112 2 4 112 5 143 1z m203 -23 c5 -135 9 -128 -76 -128
-53 0 -75 4 -76 13 -4 53 -3 124 3 132 3 6 38 10 77 10 71 0 71 0 72 -27z
m177 23 c21 -1 22 -5 22 -76 l0 -76 -77 3 -78 3 -1 72 c-1 86 -12 80 134 74z
m207 0 c7 -1 11 -30 10 -73 l0 -73 -77 -3 -78 -3 0 75 c0 41 4 76 10 78 9 3
96 2 135 -1z m203 -74 l3 -77 -78 0 -78 0 0 73 c0 82 1 83 100 81 l50 0 3 -77z
m132 74 c3 -1 6 -35 7 -76 l2 -75 -49 0 -50 0 0 73 c0 41 3 76 6 79 4 5 49 4
84 -1z m-1700 -278 l0 -83 -39 0 c-30 0 -41 5 -45 18 -10 29 -17 133 -10 143
3 5 26 9 50 8 l44 -3 0 -83z m195 2 l0 -80 -77 -3 -78 -3 0 84 0 85 78 -2 77
-2 0 -79z m193 -3 l3 -82 -75 0 c-50 0 -75 4 -78 13 -4 10 -3 127 1 148 1 4
34 6 74 5 l72 -2 3 -82z m197 1 l1 -83 -78 0 -78 0 0 83 0 83 78 -1 77 0 0
-82z m199 9 c1 -41 -2 -78 -5 -83 -3 -6 -39 -9 -79 -7 l-73 3 1 73 c1 40 3 76
6 81 3 4 38 8 77 7 l72 -1 1 -73z m197 46 c0 -15 1 -44 1 -63 0 -81 6 -75 -77
-75 -53 0 -75 4 -76 13 -1 17 -1 130 0 142 1 7 31 11 76 11 l75 0 1 -28z m199
-55 l0 -83 -79 0 -79 0 1 84 2 83 77 -1 78 0 0 -83z m186 79 c8 -2 12 -111 5
-154 0 -5 -35 -8 -76 -8 l-75 0 0 83 0 83 68 -1 c37 -1 72 -2 78 -3z m204 -78
l0 -84 -74 0 c-50 0 -75 4 -78 13 -4 10 -3 125 1 147 1 4 35 6 76 7 l75 0 0
-83z m133 25 c-4 -102 -5 -104 -51 -107 l-42 -3 0 86 0 85 48 -3 47 -3 -2 -55z
m-1703 -224 c0 -62 -2 -71 -19 -72 -15 -1 -22 11 -35 56 -24 85 -22 92 19 89
l35 -2 0 -71z m191 67 c1 -4 2 -36 3 -72 l2 -66 -78 0 -78 0 0 72 0 73 75 0
c41 0 76 -3 76 -7z m199 -66 l0 -73 -77 1 -78 1 0 65 c-1 36 1 68 2 72 2 3 37
7 78 7 l75 0 0 -73z m195 -1 l0 -70 -77 -1 -78 0 0 73 0 73 78 -2 77 -3 0 -70z
m196 60 c1 -8 1 -37 1 -65 0 -27 0 -54 -1 -59 -1 -4 -33 -8 -73 -7 -82 1 -86
5 -80 96 l4 50 74 0 c59 0 74 -3 75 -15z m200 2 c1 -14 1 -108 0 -123 -1 -6
-30 -10 -76 -10 -84 0 -83 -2 -77 93 l4 52 74 0 c50 0 74 -4 75 -12z m199 -60
l0 -73 -79 0 -79 0 3 71 c1 38 3 71 4 72 0 0 35 1 76 2 l75 1 0 -73z m195 1
c1 -38 -1 -68 -4 -69 -4 -1 -39 -2 -78 -3 l-73 -2 0 73 0 74 77 -3 77 -3 1
-67z m195 -1 l0 -73 -75 0 c-41 0 -75 2 -76 5 -3 20 -5 118 -2 127 2 6 35 11
78 12 l75 1 0 -72z m106 41 c-8 -58 -30 -111 -48 -114 -16 -2 -18 7 -18 72 l0
74 35 0 c34 0 35 -1 31 -32z m-1501 -157 c19 -1 20 -8 20 -76 0 -41 -2 -75 -5
-76 -3 0 -36 -1 -75 -2 l-70 -1 -3 79 -3 80 58 -2 c32 0 67 -1 78 -2z m213
-75 l-3 -79 -63 -1 c-35 -1 -69 2 -75 6 -6 4 -12 35 -12 73 -1 78 1 80 95 80
l61 0 -3 -79z m191 69 c3 -4 6 -38 7 -76 0 -67 0 -69 -25 -70 -14 0 -50 -1
-79 -2 l-52 -2 0 77 0 77 38 3 c49 4 102 1 111 -7z m189 6 c10 -1 12 -20 10
-78 l-3 -78 -69 1 c-37 1 -71 6 -75 12 -5 8 -6 108 -2 142 1 4 49 4 139 1z
m205 -4 c12 -5 16 -124 5 -143 -6 -9 -134 -11 -144 -2 -5 5 -7 61 -5 123 l1
30 66 -2 c36 -1 70 -3 77 -6z m163 3 l44 0 0 -75 c0 -83 6 -77 -75 -77 -14 0
-38 0 -54 1 l-30 1 3 72 c1 60 5 72 21 79 11 4 26 6 33 3 8 -2 34 -4 58 -4z
m228 -3 c9 -4 12 -24 10 -74 -1 -37 -3 -70 -3 -73 -1 -4 -107 -4 -143 -1 -5 1
-8 34 -8 75 0 61 3 75 16 78 24 4 112 1 128 -5z m204 -52 c5 -97 3 -100 -71
-99 -35 0 -68 4 -73 7 -6 3 -10 36 -9 74 l1 68 40 5 c21 3 55 5 74 4 l35 0 3
-59z m-1568 33 c0 -19 -2 -20 -10 -8 -13 19 -13 30 0 30 6 0 10 -10 10 -22z
m1623 2 c-3 -11 -7 -20 -9 -20 -2 0 -4 9 -4 20 0 11 4 20 9 20 5 0 7 -9 4 -20z
m-1433 -179 c10 -2 5 -141 -5 -143 -12 -3 -105 118 -105 136 0 9 16 12 53 10
28 -1 54 -2 57 -3z m198 -74 l3 -78 -78 3 -78 3 -1 65 c0 36 3 70 7 75 4 6 38
10 76 10 l68 0 3 -78z m193 73 c1 -3 3 -38 4 -77 l2 -73 -78 0 -79 0 0 78 0
77 75 0 c41 0 76 -2 76 -5z m197 -73 l3 -78 -78 3 -77 3 -1 65 c0 36 1 70 2
75 2 7 34 11 76 10 l72 -1 3 -77z m197 74 c8 -1 12 -97 6 -143 -1 -5 -35 -8
-76 -8 -84 0 -77 -8 -77 85 0 76 -4 71 70 69 37 -1 72 -2 77 -3z m205 -73 l0
-78 -78 0 -79 0 2 78 c1 42 3 77 4 77 0 0 35 0 76 0 l75 0 0 -77z m190 73 c5
-1 5 -117 1 -143 0 -5 -35 -8 -76 -8 l-75 0 0 73 c0 41 2 76 5 78 3 4 128 4
145 0z m155 -9 c-9 -23 -99 -141 -104 -136 -5 5 -8 125 -4 139 2 6 28 11 59
12 48 1 55 -1 49 -15z m-1135 -254 l0 -68 -38 27 c-75 55 -112 88 -112 100 0
8 23 11 75 10 l75 -1 0 -68z m193 59 c2 -7 3 -41 3 -77 l-1 -65 -75 0 -75 0
-3 77 -3 76 75 0 c47 0 76 -4 79 -11z m197 -67 l0 -78 -67 0 c-38 0 -72 4 -78
8 -7 6 -13 140 -6 146 1 0 35 1 76 1 l75 1 0 -78z m201 69 c0 -5 1 -39 2 -76
l1 -68 -72 -2 c-40 -1 -74 2 -77 7 -4 7 -9 105 -6 136 1 13 151 16 152 3z
m199 -70 l0 -79 -77 3 -78 2 -1 70 c-1 39 0 73 2 76 2 3 37 6 78 6 l76 1 0
-79z m190 70 c0 -9 -133 -119 -144 -119 -3 0 -6 29 -6 63 l0 64 75 0 c41 0 75
-3 75 -8z m-780 -199 c0 -13 -30 -13 -50 0 -11 7 -7 10 18 10 17 0 32 -4 32
-10z m190 -21 l0 -30 -52 6 c-66 8 -91 15 -100 28 -13 21 4 27 78 27 l74 0 0
-31z m204 23 c10 -17 -11 -31 -62 -40 -59 -11 -92 -10 -92 1 0 4 0 16 0 27 0
18 7 20 74 20 41 0 77 -4 80 -8z m81 -2 c-28 -12 -47 -12 -40 0 3 6 18 10 33
9 24 0 25 -1 7 -9z m-441 -126 c163 -31 322 -22 462 26 31 11 59 20 61 20 2 0
-16 -28 -40 -62 -163 -235 -277 -479 -277 -594 0 -37 -5 -43 -31 -37 -12 4
-19 14 -19 31 0 84 -87 294 -186 451 -30 47 -60 95 -67 106 -6 11 -24 36 -38
55 -14 19 -28 40 -32 46 -3 5 26 0 66 -13 39 -13 85 -26 101 -29z"/>
</g>
</svg>
