<svg width="18" height="22" viewBox="0 0 18 22" fill="none" xmlns="http://www.w3.org/2000/svg">
<path fill-rule="evenodd" clip-rule="evenodd" d="M12.4 1C12.6 2.1 12.1 3.2 11.5 4C10.9 4.8 9.80004 5.5 8.70004 5.4C8.50004 4.3 9.00004 3.3 9.60004 2.5C10.3 1.7 11.4 1.1 12.4 1ZM15.6 18.4C16.1 17.6 16.4 17.1 16.8 16.2C13.7 15 13.2 10.6 16.3 9C15.4 7.8 14.1 7.2 12.8 7.2C11.9 7.2 11.3 7.4 10.7 7.6C10.2 7.8 9.80004 7.9 9.30004 7.9C8.70004 7.9 8.30004 7.7 7.70004 7.5C7.10004 7.3 6.50004 7.1 5.80004 7.1C4.40004 7.1 2.90004 7.9 2.00004 9.4C0.700044 11.4 0.900044 15.3 3.00004 18.5C3.90004 19.7 4.90004 21 6.20004 21C6.80004 21 7.10004 20.8 7.50004 20.7C8.00004 20.5 8.50004 20.3 9.30004 20.3C10.2 20.3 10.6 20.5 11.1 20.7C11.5 20.9 11.8 21 12.4 21C13.8 21 14.8 19.5 15.6 18.4Z" stroke="white" stroke-width="1.5" stroke-miterlimit="10" stroke-linecap="round" stroke-linejoin="round"/>
</svg>
