<svg width="39" height="39" viewBox="0 0 39 39" fill="none" xmlns="http://www.w3.org/2000/svg">
<rect width="39" height="39" rx="12" fill="#2F2F2F"/>
<path fill-rule="evenodd" clip-rule="evenodd" d="M22.4 9C22.6 10.1 22.1 11.2 21.5 12C20.9 12.8 19.8 13.5 18.7 13.4C18.5 12.3 19 11.3 19.6 10.5C20.3 9.7 21.4 9.1 22.4 9ZM25.6 26.4C26.1 25.6 26.4 25.1 26.8 24.2C23.7 23 23.2 18.6 26.3 17C25.4 15.8 24.1 15.2 22.8 15.2C21.9 15.2 21.3 15.4 20.7 15.6C20.2 15.8 19.8 15.9 19.3 15.9C18.7 15.9 18.3 15.7 17.7 15.5C17.1 15.3 16.5 15.1 15.8 15.1C14.4 15.1 12.9 15.9 12 17.4C10.7 19.4 10.9 23.3 13 26.5C13.9 27.7 14.9 29 16.2 29C16.8 29 17.1 28.8 17.5 28.7C18 28.5 18.5 28.3 19.3 28.3C20.2 28.3 20.6 28.5 21.1 28.7C21.5 28.9 21.8 29 22.4 29C23.8 29 24.8 27.5 25.6 26.4Z" stroke="white" stroke-width="1.5" stroke-miterlimit="10" stroke-linecap="round" stroke-linejoin="round"/>
</svg>
