<svg width="39" height="39" viewBox="0 0 39 39" fill="none" xmlns="http://www.w3.org/2000/svg">
<rect width="39" height="39" rx="12" fill="#C6312D"/>
<path d="M28.6 17.2H19.2V20.9H24.7C24.6 21.8 24 23.2 22.7 24.1C21.9 24.7 20.7 25.1 19.2 25.1C16.6 25.1 14.3 23.4 13.5 20.9C13.3 20.3 13.2 19.6 13.2 18.9C13.2 18.2 13.3 17.5 13.5 16.9C13.6 16.7 13.6 16.5 13.7 16.4C14.6 14.3 16.7 12.8 19.2 12.8C21.1 12.8 22.3 13.6 23.1 14.3L25.9 11.5C24.1999 10 21.9 9 19.2 9C15.3 9 11.9 11.2 10.3 14.5C9.59995 15.9 9.19995 17.4 9.19995 19C9.19995 20.6 9.59995 22.1 10.3 23.5C11.9 26.8 15.3 29 19.2 29C21.9 29 24.1999 28.1 25.7999 26.6C27.6999 24.9 28.7999 22.3 28.7999 19.2C28.7999 18.4 28.7 17.8 28.6 17.2Z" stroke="white" stroke-width="1.5" stroke-miterlimit="10" stroke-linecap="round" stroke-linejoin="round"/>
</svg>
