<svg width="22" height="22" viewBox="0 0 22 22" fill="none" xmlns="http://www.w3.org/2000/svg">
<path d="M1.68799 10.2197V14.7097C1.68799 19.1997 3.48799 20.9997 7.97799 20.9997H13.368C17.858 20.9997 19.658 19.1997 19.658 14.7097V10.2197M10.6782 11C12.5082 11 13.8582 9.51 13.6782 7.68L13.0182 1H8.34821L7.67821 7.68C7.49821 9.51 8.84821 11 10.6782 11ZM16.988 11C19.008 11 20.488 9.36 20.288 7.35L20.008 4.6C19.648 2 18.648 1 16.028 1H12.978L13.678 8.01C13.848 9.66 15.338 11 16.988 11ZM4.31811 11C5.96811 11 7.4581 9.66 7.6181 8.01L8.31811 1H5.26811C2.64811 1 1.64811 2 1.28811 4.6L1.01811 7.35C0.818105 9.36 2.29811 11 4.31811 11ZM10.6782 16C9.00822 16 8.17822 16.83 8.17822 18.5V21H13.1782V18.5C13.1782 16.83 12.3482 16 10.6782 16Z" stroke="#3B3B3B" stroke-width="1.5" stroke-linecap="round" stroke-linejoin="round"/>
</svg>
